# 3ds Max Wavefront OBJ Exporter v0.97b - (c)2007 guruware
# File Created: 16.05.2017 02:24:40

mtllib interact.mtl

#
# object TVScreen
#

v  -355.7914 83.1703 45.4494
v  -355.7914 83.1703 -31.6945
v  -355.7914 124.8061 -31.6945
v  -355.7914 124.8061 45.4494
# 4 vertices

vn 1.0000 0.0000 -0.0000
# 1 vertex normals

g TVScreen
usemtl wire_153228214
s 4
f 1//1 2//1 3//1 
f 1//1 3//1 4//1 
# 2 faces

#
# object TV
#

v  -358.9545 78.2323 -43.2078
v  -359.9494 78.2323 -43.0930
v  -359.9494 129.7441 -43.0930
v  -358.9545 129.7441 -43.2078
v  -360.8631 78.2323 -42.7661
v  -360.8631 129.7441 -42.7661
v  -361.6694 78.2323 -42.2532
v  -361.6694 129.7441 -42.2532
v  -362.3421 78.2323 -41.5805
v  -362.3421 129.7441 -41.5805
v  -362.8550 78.2323 -40.7742
v  -362.8550 129.7441 -40.7742
v  -363.1819 78.2323 -39.8605
v  -363.1819 129.7441 -39.8605
v  -363.2967 78.2323 -38.8655
v  -363.2967 129.7441 -38.8655
v  -363.2967 78.2323 52.6204
v  -363.2967 129.7441 52.6204
v  -363.1819 78.2323 53.6154
v  -363.1819 129.7441 53.6154
v  -362.8550 78.2323 54.5291
v  -362.8550 129.7441 54.5291
v  -362.3421 78.2323 55.3354
v  -362.3421 129.7441 55.3354
v  -361.6694 78.2323 56.0081
v  -361.6694 129.7441 56.0081
v  -360.8631 78.2323 56.5209
v  -360.8631 129.7441 56.5209
v  -359.9494 78.2323 56.8479
v  -359.9494 129.7441 56.8479
v  -358.9545 78.2323 56.9627
v  -358.9545 129.7441 56.9627
v  -354.8654 78.2323 56.9627
v  -354.8654 129.7441 56.9627
v  -353.8704 78.2323 56.8479
v  -353.8704 129.7441 56.8479
v  -352.9567 78.2323 56.5210
v  -352.9567 129.7441 56.5210
v  -352.1504 78.2323 56.0080
v  -352.1504 129.7441 56.0080
v  -351.4777 78.2323 55.3354
v  -351.4777 129.7441 55.3354
v  -350.9648 78.2323 54.5291
v  -350.9648 129.7441 54.5291
v  -350.6379 78.2323 53.6154
v  -350.6379 129.7441 53.6154
v  -350.5231 78.2323 52.6204
v  -350.5231 129.7441 52.6204
v  -350.5231 78.2323 -38.8655
v  -350.6379 78.2323 -39.8605
v  -350.6379 129.7441 -39.8605
v  -350.5231 129.7441 -38.8655
v  -350.9648 78.2323 -40.7742
v  -350.9648 129.7441 -40.7742
v  -351.4778 78.2323 -41.5805
v  -351.4778 129.7441 -41.5805
v  -352.1504 78.2323 -42.2532
v  -352.1504 129.7441 -42.2532
v  -352.9567 78.2323 -42.7661
v  -352.9567 129.7441 -42.7661
v  -353.8704 78.2323 -43.0930
v  -353.8704 129.7441 -43.0930
v  -354.8654 78.2323 -43.2078
v  -354.8654 129.7441 -43.2078
v  -350.5994 81.1099 47.5099
v  -350.5994 126.8666 47.5099
v  -350.5994 81.1099 -33.7550
v  -350.5994 126.8666 -33.7550
v  -355.7914 83.1703 -31.6945
v  -355.7914 83.1703 45.4494
v  -355.7914 124.8061 -31.6945
v  -355.7914 124.8061 45.4494
# 72 vertices

vn -0.1146 0.0000 -0.9934
vn -0.2272 0.0000 -0.9738
vn -0.4395 0.0000 -0.8982
vn -0.6257 0.0000 -0.7801
vn -0.7801 0.0000 -0.6257
vn -0.8982 0.0000 -0.4395
vn -0.9738 0.0000 -0.2272
vn -0.9934 0.0000 -0.1146
vn -1.0000 0.0000 -0.0000
vn -0.9934 0.0000 0.1146
vn -0.9738 0.0000 0.2272
vn -0.8982 0.0000 0.4395
vn -0.7801 0.0000 0.6257
vn -0.6257 0.0000 0.7801
vn -0.4395 0.0000 0.8982
vn -0.2272 0.0000 0.9738
vn -0.1146 0.0000 0.9934
vn 0.0000 0.0000 1.0000
vn 0.1146 0.0000 0.9934
vn 0.2272 0.0000 0.9738
vn 0.4395 0.0000 0.8982
vn 0.6257 0.0000 0.7801
vn 0.7801 0.0000 0.6257
vn 0.8982 0.0000 0.4395
vn 0.9738 0.0000 0.2272
vn 0.9934 0.0000 0.1146
vn 0.9934 0.0000 -0.1146
vn 0.9738 0.0000 -0.2272
vn 0.8982 0.0000 -0.4395
vn 0.7801 0.0000 -0.6257
vn 0.6257 0.0000 -0.7801
vn 0.4395 0.0000 -0.8982
vn 0.2272 0.0000 -0.9738
vn 0.1146 0.0000 -0.9934
vn 0.0000 0.0000 -1.0000
vn 0.0000 -1.0000 -0.0000
vn 0.0000 1.0000 -0.0000
vn 0.9999 0.0000 -0.0149
vn 0.9996 0.0265 -0.0000
vn 0.9999 0.0000 0.0149
vn 0.9996 -0.0265 -0.0000
vn 0.3689 0.9295 -0.0000
vn 0.3689 0.0000 0.9295
vn 0.3689 -0.9295 -0.0000
vn 0.3689 0.0000 -0.9295
# 45 vertex normals

g TV
usemtl wire_086086086
s 1
f 5//2 6//3 7//3 
f 5//2 7//3 8//2 
s 3
f 6//3 9//4 10//4 
f 6//3 10//4 7//3 
s 2
f 9//4 11//5 12//5 
f 9//4 12//5 10//4 
f 11//5 13//6 14//6 
f 11//5 14//6 12//5 
f 13//6 15//7 16//7 
f 13//6 16//7 14//6 
f 15//7 17//8 18//8 
f 15//7 18//8 16//7 
f 17//8 19//9 20//9 
f 17//8 20//9 18//8 
s 4
f 19//10 21//10 22//10 
f 19//10 22//10 20//10 
s 2
f 21//11 23//12 24//12 
f 21//11 24//12 22//11 
f 23//12 25//13 26//13 
f 23//12 26//13 24//12 
f 25//13 27//14 28//14 
f 25//13 28//14 26//13 
f 27//14 29//15 30//15 
f 27//14 30//15 28//14 
f 29//15 31//16 32//16 
f 29//15 32//16 30//15 
f 31//16 33//17 34//17 
f 31//16 34//17 32//16 
f 33//17 35//18 36//18 
f 33//17 36//18 34//17 
s 4
f 35//19 37//19 38//19 
f 35//19 38//19 36//19 
s 2
f 37//20 39//21 40//21 
f 37//20 40//21 38//20 
f 39//21 41//22 42//22 
f 39//21 42//22 40//21 
f 41//22 43//23 44//23 
f 41//22 44//23 42//22 
f 43//23 45//24 46//24 
f 43//23 46//24 44//23 
f 45//24 47//25 48//25 
f 45//24 48//25 46//24 
f 47//25 49//26 50//26 
f 47//25 50//26 48//25 
f 49//26 51//27 52//27 
f 49//26 52//27 50//26 
f 53//28 54//29 55//29 
f 53//28 55//29 56//28 
f 54//29 57//30 58//30 
f 54//29 58//30 55//29 
f 57//30 59//31 60//31 
f 57//30 60//31 58//30 
f 59//31 61//32 62//32 
f 59//31 62//32 60//31 
f 61//32 63//33 64//33 
f 61//32 64//33 62//32 
f 63//33 65//34 66//34 
f 63//33 66//34 64//33 
f 65//34 67//35 68//35 
f 65//34 68//35 66//34 
s 4
f 67//36 5//36 8//36 
f 67//36 8//36 68//36 
s 16
f 63//37 67//37 65//37 
f 61//37 67//37 63//37 
f 59//37 67//37 61//37 
f 57//37 67//37 59//37 
f 54//37 67//37 57//37 
f 53//37 67//37 54//37 
f 51//37 67//37 53//37 
f 51//37 5//37 67//37 
f 51//37 6//37 5//37 
f 51//37 9//37 6//37 
f 51//37 11//37 9//37 
f 51//37 13//37 11//37 
f 51//37 15//37 13//37 
f 51//37 17//37 15//37 
f 51//37 19//37 17//37 
f 51//37 21//37 19//37 
f 49//37 21//37 51//37 
f 47//37 21//37 49//37 
f 45//37 21//37 47//37 
f 43//37 21//37 45//37 
f 41//37 21//37 43//37 
f 39//37 21//37 41//37 
f 37//37 21//37 39//37 
f 35//37 21//37 37//37 
f 33//37 21//37 35//37 
f 33//37 23//37 21//37 
f 31//37 23//37 33//37 
f 31//37 25//37 23//37 
f 31//37 27//37 25//37 
f 29//37 27//37 31//37 
f 64//38 66//38 68//38 
f 62//38 64//38 68//38 
f 60//38 62//38 68//38 
f 58//38 60//38 68//38 
f 55//38 58//38 68//38 
f 56//38 55//38 68//38 
f 52//38 56//38 68//38 
f 52//38 68//38 8//38 
f 52//38 8//38 7//38 
f 52//38 7//38 10//38 
f 52//38 10//38 12//38 
f 52//38 12//38 14//38 
f 52//38 14//38 16//38 
f 52//38 16//38 18//38 
f 52//38 18//38 20//38 
f 52//38 20//38 22//38 
f 50//38 52//38 22//38 
f 48//38 50//38 22//38 
f 46//38 48//38 22//38 
f 44//38 46//38 22//38 
f 42//38 44//38 22//38 
f 40//38 42//38 22//38 
f 38//38 40//38 22//38 
f 36//38 38//38 22//38 
f 34//38 36//38 22//38 
f 34//38 22//38 24//38 
f 32//38 34//38 24//38 
f 32//38 24//38 26//38 
f 32//38 26//38 28//38 
f 30//38 32//38 28//38 
s off
f 52//39 51//39 69//39 
f 69//39 70//39 52//39 
f 51//40 53//40 71//40 
f 71//40 69//40 51//40 
f 53//41 56//41 72//41 
f 72//41 71//41 53//41 
f 56//42 52//42 70//42 
f 70//42 72//42 56//42 
f 69//43 71//43 73//43 
f 73//43 74//43 69//43 
f 71//44 72//44 75//44 
f 75//44 73//44 71//44 
f 72//45 70//45 76//45 
f 76//45 75//45 72//45 
f 70//46 69//46 74//46 
f 74//46 76//46 70//46 
# 138 faces

#
# object RedBook2
#

v  338.8928 145.7971 29.5419
v  338.8928 145.7971 24.0509
v  359.4787 145.7971 24.0509
v  359.4787 145.7971 29.5419
v  338.8928 174.2207 29.5419
v  359.4787 174.2207 29.5419
v  359.4787 174.2207 24.0509
v  338.8928 174.2207 24.0509
# 8 vertices

vn 0.0000 -1.0000 -0.0000
vn 0.0000 1.0000 -0.0000
vn 0.0000 0.0000 1.0000
vn 1.0000 0.0000 -0.0000
vn 0.0000 0.0000 -1.0000
vn -1.0000 0.0000 -0.0000
# 6 vertex normals

vt 1.0000 0.0000 0.0000
vt 1.0000 1.0000 0.0000
vt 0.0000 1.0000 0.0000
vt 0.0000 0.0000 0.0000
# 4 texture coords

g RedBook2
usemtl Material__11
s 2
f 77/1/47 78/2/47 79/3/47 
f 79/3/47 80/4/47 77/1/47 
s 4
f 81/4/48 82/1/48 83/2/48 
f 83/2/48 84/3/48 81/4/48 
s 8
f 77/4/49 80/1/49 82/2/49 
f 82/2/49 81/3/49 77/4/49 
s 16
f 80/4/50 79/1/50 83/2/50 
f 83/2/50 82/3/50 80/4/50 
s 32
f 79/4/51 78/1/51 84/2/51 
f 84/2/51 83/3/51 79/4/51 
s 64
f 78/4/52 77/1/52 81/2/52 
f 81/2/52 84/3/52 78/4/52 
# 12 faces

#
# object RedBook4
#

v  338.8928 73.5284 18.8590
v  338.8928 73.5284 13.3680
v  359.4787 73.5284 13.3680
v  359.4787 73.5284 18.8590
v  338.8928 101.9520 18.8590
v  359.4787 101.9520 18.8590
v  359.4787 101.9520 13.3680
v  338.8928 101.9520 13.3680
# 8 vertices

vn 0.0000 -1.0000 -0.0000
vn 0.0000 1.0000 -0.0000
vn 0.0000 0.0000 1.0000
vn 1.0000 0.0000 -0.0000
vn 0.0000 0.0000 -1.0000
vn -1.0000 0.0000 -0.0000
# 6 vertex normals

vt 1.0000 0.0000 0.0000
vt 1.0000 1.0000 0.0000
vt 0.0000 1.0000 0.0000
vt 0.0000 0.0000 0.0000
# 4 texture coords

g RedBook4
usemtl Material__11
s 2
f 85/5/53 86/6/53 87/7/53 
f 87/7/53 88/8/53 85/5/53 
s 4
f 89/8/54 90/5/54 91/6/54 
f 91/6/54 92/7/54 89/8/54 
s 8
f 85/8/55 88/5/55 90/6/55 
f 90/6/55 89/7/55 85/8/55 
s 16
f 88/8/56 87/5/56 91/6/56 
f 91/6/56 90/7/56 88/8/56 
s 32
f 87/8/57 86/5/57 92/6/57 
f 92/6/57 91/7/57 87/8/57 
s 64
f 86/8/58 85/5/58 89/6/58 
f 89/6/58 92/7/58 86/8/58 
# 12 faces

#
# object RedBook5
#

v  334.1996 37.6018 -40.7288
v  334.1996 37.6018 -45.1504
v  360.2453 37.6018 -45.1504
v  360.2453 37.6018 -40.7288
v  334.1996 60.4895 -40.7288
v  360.2453 60.4895 -40.7288
v  360.2453 60.4895 -45.1504
v  334.1996 60.4895 -45.1504
# 8 vertices

vn 0.0000 -1.0000 -0.0000
vn 0.0000 1.0000 -0.0000
vn 0.0000 0.0000 1.0000
vn 1.0000 0.0000 -0.0000
vn 0.0000 0.0000 -1.0000
vn -1.0000 0.0000 -0.0000
# 6 vertex normals

vt 1.0000 0.0000 0.0000
vt 1.0000 1.0000 0.0000
vt 0.0000 1.0000 0.0000
vt 0.0000 0.0000 0.0000
# 4 texture coords

g RedBook5
usemtl Material__11
s 2
f 93/9/59 94/10/59 95/11/59 
f 95/11/59 96/12/59 93/9/59 
s 4
f 97/12/60 98/9/60 99/10/60 
f 99/10/60 100/11/60 97/12/60 
s 8
f 93/12/61 96/9/61 98/10/61 
f 98/10/61 97/11/61 93/12/61 
s 16
f 96/12/62 95/9/62 99/10/62 
f 99/10/62 98/11/62 96/12/62 
s 32
f 95/12/63 94/9/63 100/10/63 
f 100/10/63 99/11/63 95/12/63 
s 64
f 94/12/64 93/9/64 97/10/64 
f 97/10/64 100/11/64 94/12/64 
# 12 faces

#
# object RedBook6
#

v  338.8928 1.5061 -74.1718
v  338.8928 1.5061 -79.6629
v  359.4787 1.5061 -79.6629
v  359.4787 1.5061 -74.1718
v  338.8928 29.9297 -74.1718
v  359.4787 29.9297 -74.1718
v  359.4787 29.9297 -79.6629
v  338.8928 29.9297 -79.6629
# 8 vertices

vn 0.0000 -1.0000 -0.0000
vn 0.0000 1.0000 -0.0000
vn 0.0000 0.0000 1.0000
vn 1.0000 0.0000 -0.0000
vn 0.0000 0.0000 -1.0000
vn -1.0000 0.0000 -0.0000
# 6 vertex normals

vt 1.0000 0.0000 0.0000
vt 1.0000 1.0000 0.0000
vt 0.0000 1.0000 0.0000
vt 0.0000 0.0000 0.0000
# 4 texture coords

g RedBook6
usemtl Material__11
s 2
f 101/13/65 102/14/65 103/15/65 
f 103/15/65 104/16/65 101/13/65 
s 4
f 105/16/66 106/13/66 107/14/66 
f 107/14/66 108/15/66 105/16/66 
s 8
f 101/16/67 104/13/67 106/14/67 
f 106/14/67 105/15/67 101/16/67 
s 16
f 104/16/68 103/13/68 107/14/68 
f 107/14/68 106/15/68 104/16/68 
s 32
f 103/16/69 102/13/69 108/14/69 
f 108/14/69 107/15/69 103/16/69 
s 64
f 102/16/70 101/13/70 105/14/70 
f 105/14/70 108/15/70 102/16/70 
# 12 faces

#
# object RedBook3
#

v  337.4774 109.7548 117.0757
v  337.4774 110.8395 110.9246
v  360.8940 110.8395 110.9246
v  360.8940 109.7548 117.0757
v  337.4774 141.5957 122.6901
v  360.8940 141.5957 122.6901
v  360.8940 142.6803 116.5390
v  337.4774 142.6803 116.5390
# 8 vertices

vn 0.0000 -0.9848 -0.1736
vn 0.0000 0.9848 0.1736
vn 0.0000 -0.1736 0.9848
vn 1.0000 0.0000 -0.0000
vn 0.0000 0.1736 -0.9848
vn -1.0000 0.0000 -0.0000
# 6 vertex normals

vt 1.0000 0.0000 0.0000
vt 1.0000 1.0000 0.0000
vt 0.0000 1.0000 0.0000
vt 0.0000 0.0000 0.0000
# 4 texture coords

g RedBook3
usemtl Material__11
s 2
f 109/17/71 110/18/71 111/19/71 
f 111/19/71 112/20/71 109/17/71 
s 4
f 113/20/72 114/17/72 115/18/72 
f 115/18/72 116/19/72 113/20/72 
s 8
f 109/20/73 112/17/73 114/18/73 
f 114/18/73 113/19/73 109/20/73 
s 16
f 112/20/74 111/17/74 115/18/74 
f 115/18/74 114/19/74 112/20/74 
s 32
f 111/20/75 110/17/75 116/18/75 
f 116/18/75 115/19/75 111/20/75 
s 64
f 110/20/76 109/17/76 113/18/76 
f 113/18/76 116/19/76 110/20/76 
# 12 faces

#
# object RedBook1
#

v  337.4774 145.3667 -75.2231
v  337.4774 145.3667 -81.4691
v  360.8940 145.3667 -81.4691
v  360.8940 145.3667 -75.2231
v  337.4774 177.6988 -75.2231
v  360.8940 177.6988 -75.2231
v  360.8940 177.6988 -81.4691
v  337.4774 177.6988 -81.4691
# 8 vertices

vn 0.0000 -1.0000 -0.0000
vn 0.0000 1.0000 -0.0000
vn 0.0000 0.0000 1.0000
vn 1.0000 0.0000 -0.0000
vn 0.0000 0.0000 -1.0000
vn -1.0000 0.0000 -0.0000
# 6 vertex normals

vt 1.0000 0.0000 0.0000
vt 1.0000 1.0000 0.0000
vt 0.0000 1.0000 0.0000
vt 0.0000 0.0000 0.0000
# 4 texture coords

g RedBook1
usemtl Material__11
s 2
f 117/21/77 118/22/77 119/23/77 
f 119/23/77 120/24/77 117/21/77 
s 4
f 121/24/78 122/21/78 123/22/78 
f 123/22/78 124/23/78 121/24/78 
s 8
f 117/24/79 120/21/79 122/22/79 
f 122/22/79 121/23/79 117/24/79 
s 16
f 120/24/80 119/21/80 123/22/80 
f 123/22/80 122/23/80 120/24/80 
s 32
f 119/24/81 118/21/81 124/22/81 
f 124/22/81 123/23/81 119/24/81 
s 64
f 118/24/82 117/21/82 121/22/82 
f 121/22/82 124/23/82 118/24/82 
# 12 faces

#
# object RedBook7
#

v  334.4561 1.6166 116.0967
v  334.4561 1.6166 109.8507
v  357.8727 1.6166 109.8507
v  357.8727 1.6166 116.0967
v  334.4561 33.9486 116.0967
v  357.8727 33.9486 116.0967
v  357.8727 33.9486 109.8507
v  334.4561 33.9486 109.8507
# 8 vertices

vn 0.0000 -1.0000 -0.0000
vn 0.0000 1.0000 -0.0000
vn 0.0000 0.0000 1.0000
vn 1.0000 0.0000 -0.0000
vn 0.0000 0.0000 -1.0000
vn -1.0000 0.0000 -0.0000
# 6 vertex normals

vt 1.0000 0.0000 0.0000
vt 1.0000 1.0000 0.0000
vt 0.0000 1.0000 0.0000
vt 0.0000 0.0000 0.0000
# 4 texture coords

g RedBook7
usemtl Material__11
s 2
f 125/25/83 126/26/83 127/27/83 
f 127/27/83 128/28/83 125/25/83 
s 4
f 129/28/84 130/25/84 131/26/84 
f 131/26/84 132/27/84 129/28/84 
s 8
f 125/28/85 128/25/85 130/26/85 
f 130/26/85 129/27/85 125/28/85 
s 16
f 128/28/86 127/25/86 131/26/86 
f 131/26/86 130/27/86 128/28/86 
s 32
f 127/28/87 126/25/87 132/26/87 
f 132/26/87 131/27/87 127/28/87 
s 64
f 126/28/88 125/25/88 129/26/88 
f 129/26/88 132/27/88 126/28/88 
# 12 faces

